<?xml version="1.0" standalone="no"?>
<!DOCTYPE svg PUBLIC "-//W3C//DTD SVG 20010904//EN"
 "http://www.w3.org/TR/2001/REC-SVG-20010904/DTD/svg10.dtd">
<svg version="1.0" xmlns="http://www.w3.org/2000/svg"
 width="1024.000000pt" height="1024.000000pt" viewBox="0 0 1024.000000 1024.000000"
 preserveAspectRatio="xMidYMid meet"
 style="fill:green;"
 >

<g transform="translate(0.000000,1024.000000) scale(0.100000,-0.100000)"
fill="green" stroke="none">
<path d="M4845 8844 c-183 -18 -261 -29 -400 -55 -747 -142 -1437 -498 -1957
-1011 -435 -429 -748 -918 -922 -1441 -138 -412 -189 -734 -190 -1182 0 -513
72 -903 251 -1360 273 -693 800 -1338 1431 -1749 480 -313 1013 -513 1563
-586 221 -30 618 -37 844 -16 745 69 1417 339 2000 802 140 111 484 456 599
599 97 123 236 324 315 459 602 1025 651 2403 122 3456 -163 325 -340 580
-609 873 -322 352 -671 609 -1147 842 -373 183 -735 294 -1150 351 -114 15
-645 28 -750 18z m640 -179 c231 -27 413 -62 605 -117 376 -108 772 -298 1097
-526 195 -137 269 -198 417 -342 454 -441 740 -877 914 -1395 112 -334 168
-657 179 -1030 19 -688 -150 -1351 -488 -1910 -160 -264 -319 -466 -549 -695
-470 -470 -988 -770 -1610 -933 -320 -85 -579 -117 -930 -117 -581 0 -1084
118 -1600 377 -376 188 -681 409 -959 692 -616 631 -946 1360 -1011 2236 -59
809 164 1611 630 2260 506 705 1219 1189 2073 1409 154 40 259 59 457 86 178
24 589 26 775 5z"/>
<path d="M4955 8573 c-813 -50 -1576 -363 -2169 -891 -225 -199 -488 -511
-643 -760 -172 -276 -315 -613 -392 -922 -71 -281 -91 -441 -98 -762 -8 -366
16 -606 92 -923 218 -913 861 -1732 1724 -2197 913 -491 2016 -551 2971 -161
434 177 800 423 1151 773 538 537 866 1186 971 1925 20 141 23 200 23 505 0
281 -3 369 -18 475 -94 664 -357 1228 -818 1751 -441 500 -1047 880 -1694
1063 -339 95 -773 144 -1100 124z m525 -598 c491 -62 999 -282 1423 -617 56
-44 179 -158 272 -252 240 -240 382 -432 524 -708 222 -427 323 -822 323
-1258 0 -227 -11 -341 -58 -576 -118 -594 -446 -1158 -913 -1568 -439 -386
-944 -624 -1511 -711 -146 -23 -534 -31 -697 -16 -572 55 -1083 268 -1566 653
-451 359 -800 888 -952 1445 -78 284 -99 444 -99 763 0 271 13 396 64 605 44
183 123 406 204 578 275 578 778 1088 1366 1382 304 153 641 255 935 284 61 6
124 13 140 15 62 9 425 -4 545 -19z"/>
<path d="M4915 7749 c-530 -50 -1035 -260 -1455 -605 -119 -97 -324 -302 -413
-414 -161 -200 -312 -460 -402 -689 -163 -419 -214 -911 -139 -1350 140 -825
673 -1535 1438 -1915 408 -203 794 -286 1266 -273 448 12 839 124 1245 355
252 144 552 398 728 617 326 407 514 854 573 1363 22 190 15 518 -16 691 -25
141 -74 326 -120 453 -48 133 -189 410 -270 533 -196 296 -482 585 -763 773
-378 253 -723 389 -1132 447 -130 19 -413 26 -540 14z m336 -595 c203 -101
344 -192 540 -346 47 -37 89 -68 93 -68 3 0 6 42 6 94 0 89 1 94 23 100 38 10
297 7 318 -4 18 -10 19 -23 19 -230 l0 -219 128 -108 c71 -59 220 -185 333
-280 248 -208 251 -211 251 -257 0 -63 -50 -96 -146 -96 -43 0 -56 -4 -60 -17
-3 -10 -44 -214 -91 -453 -48 -239 -95 -469 -105 -510 -12 -49 -20 -124 -22
-217 l-3 -141 38 71 c38 72 80 165 131 287 28 69 50 100 80 117 17 9 16 11 -8
17 -16 4 -26 13 -26 24 0 9 13 126 29 260 31 260 38 282 89 282 39 0 62 -27
62 -74 0 -23 -9 -131 -20 -241 -24 -238 -25 -295 -6 -321 13 -17 27 -19 160
-18 120 0 149 3 162 16 12 12 18 52 25 174 24 403 26 424 44 444 23 25 66 26
96 1 l24 -19 0 -334 c0 -329 0 -333 -23 -369 -29 -48 -77 -69 -168 -76 l-74
-6 -6 -48 -7 -49 -68 0 -68 0 -3 53 -3 52 -66 3 -66 3 -7 -63 c-9 -77 -26
-118 -75 -183 l-39 -51 82 32 c128 52 199 67 293 62 75 -4 86 -7 113 -33 24
-23 30 -37 30 -72 0 -51 -27 -84 -88 -110 l-37 -16 50 -12 c114 -30 129 -134
26 -178 l-49 -20 39 -29 c34 -24 39 -33 39 -66 0 -27 -7 -45 -23 -60 -30 -29
-293 -142 -328 -142 -5 0 -18 19 -30 42 -28 54 -122 149 -179 179 l-45 24
-642 3 -643 3 0 175 c0 197 -3 209 -71 268 -55 47 -126 70 -194 63 -71 -7
-123 -36 -179 -98 l-46 -51 0 -179 0 -179 -615 0 c-689 0 -659 3 -764 -74 -43
-31 -120 -129 -133 -167 -4 -12 -227 72 -300 113 -69 39 -73 111 -10 155 l32
21 -44 22 c-57 27 -68 41 -68 86 0 47 26 73 88 89 l49 12 -42 21 c-79 41 -106
110 -63 165 30 38 80 50 179 44 84 -5 212 -41 289 -81 l33 -17 -41 59 c-47 70
-68 124 -76 201 -4 31 -16 73 -26 95 -20 39 -20 45 -2 177 3 28 -7 152 -26
313 -33 284 -32 296 15 296 48 0 56 -26 101 -313 50 -313 49 -301 29 -293 -21
8 -19 -3 5 -22 11 -10 48 -80 83 -157 35 -77 80 -171 100 -210 l37 -70 -4 145
c-3 125 -9 172 -45 340 -23 107 -64 305 -92 440 -27 135 -56 277 -65 316 l-16
72 -75 4 c-67 3 -78 6 -99 31 -16 19 -24 40 -24 67 0 42 22 66 160 182 36 30
124 103 195 163 320 268 929 736 1060 814 83 50 359 191 395 202 38 11 76 1
171 -47z m-2161 -1244 c34 -18 36 -27 110 -740 16 -157 36 -350 45 -429 8 -79
15 -156 15 -172 l0 -29 -70 0 c-78 0 -72 -6 -85 91 -6 51 7 41 -157 112 -31
14 -61 33 -66 44 -14 25 -50 198 -67 318 -45 314 16 650 140 766 51 49 94 61
135 39z m4060 -470 c23 -23 23 -8 10 -258 -13 -245 -15 -258 -45 -278 -31 -20
-90 -11 -104 15 -16 29 26 501 46 524 21 23 68 22 93 -3z m-2510 -1635 c108
-18 240 -54 240 -66 0 -15 -112 -61 -210 -86 -65 -17 -135 -26 -222 -30 l-128
-6 0 24 c1 35 33 100 66 131 53 49 110 56 254 33z m1165 -15 c44 -27 84 -85
92 -134 l6 -36 -89 0 c-98 0 -249 20 -334 45 -95 28 -182 67 -168 77 46 30
308 79 395 74 42 -2 74 -11 98 -26z m-780 -128 c-27 -138 -109 -248 -232 -308
-78 -39 -178 -39 -256 0 -50 24 -177 143 -177 165 0 4 46 11 102 15 216 15
443 94 533 185 17 16 33 27 37 23 4 -4 0 -40 -7 -80z m270 -9 c123 -71 270
-109 462 -120 l102 -6 -17 -29 c-26 -45 -103 -113 -163 -144 -115 -59 -266
-26 -375 83 -58 58 -107 147 -123 221 -17 83 -15 90 17 60 15 -14 59 -43 97
-65z m-2071 9 l89 -39 24 -79 c27 -89 22 -117 -22 -134 -36 -14 -70 6 -124 72
-53 65 -69 99 -77 174 -6 47 -5 56 7 51 8 -3 54 -23 103 -45z m3893 -28 c-4
-37 -14 -79 -23 -93 -38 -57 -90 -111 -122 -127 -33 -15 -36 -15 -61 3 -33 25
-36 61 -13 138 19 64 15 60 132 114 94 43 94 43 87 -35z m-3061 -109 c32 -9
62 -28 85 -52 39 -41 69 -83 69 -95 0 -5 -59 -8 -130 -8 -147 0 -181 -9 -223
-60 -37 -44 -53 -85 -68 -175 -10 -60 -18 -81 -37 -96 -54 -42 -122 -3 -122
68 0 160 66 298 178 375 79 55 161 69 248 43z m2287 -5 c115 -36 206 -139 242
-275 16 -62 20 -172 7 -191 -23 -35 -96 -40 -121 -10 -6 7 -17 49 -25 93 -15
88 -34 133 -75 176 -47 51 -69 57 -216 57 -101 0 -135 3 -135 13 0 22 38 74
74 102 75 57 145 67 249 35z m-1918 -275 c616 -57 761 -57 1305 -6 406 38 460
41 460 32 0 -14 -113 -116 -175 -158 -247 -167 -619 -243 -1050 -214 -339 22
-551 83 -752 213 -70 46 -173 139 -173 156 0 11 20 10 385 -23z"/>
<path d="M5018 6972 c-10 -2 -18 -5 -18 -6 0 -2 16 -33 35 -70 19 -37 35 -78
35 -90 0 -12 7 -31 15 -42 15 -19 15 -18 38 7 13 15 41 32 63 39 21 7 49 20
61 28 24 15 43 67 43 116 0 27 -1 28 -37 21 -51 -9 -112 -45 -127 -74 -13 -23
-13 -23 -39 22 -28 47 -40 56 -69 49z"/>
<path d="M4832 6724 c-89 -44 -134 -131 -133 -257 0 -117 63 -266 146 -347 37
-36 51 -44 93 -48 41 -3 61 1 107 23 l57 28 54 -26 c91 -45 148 -34 216 41
180 199 182 505 5 591 -57 27 -108 26 -201 -4 l-76 -25 -77 25 c-99 31 -127
31 -191 -1z"/>
<path d="M3800 5555 l0 -295 170 0 170 0 0 295 0 295 -170 0 -170 0 0 -295z"/>
<path d="M4280 5555 l0 -295 165 0 165 0 0 295 0 295 -165 0 -165 0 0 -295z"/>
<path d="M5580 5555 l0 -295 170 0 170 0 0 295 0 295 -170 0 -170 0 0 -295z"/>
<path d="M6060 5555 l0 -295 170 0 170 0 0 295 0 295 -170 0 -170 0 0 -295z"/>
<path d="M4760 5550 l0 -290 335 0 335 0 0 290 0 290 -335 0 -335 0 0 -290z"/>
<path d="M3805 4968 c-3 -7 -4 -144 -3 -303 l3 -290 168 -3 167 -2 -2 302 -3
303 -163 3 c-125 2 -164 0 -167 -10z"/>
<path d="M4280 4675 l0 -305 165 0 165 0 0 305 0 305 -165 0 -165 0 0 -305z"/>
<path d="M5582 4678 l3 -303 168 -3 167 -2 -2 302 -3 303 -168 3 -167 2 2
-302z"/>
<path d="M6060 4675 l0 -305 170 0 170 0 0 305 0 305 -170 0 -170 0 0 -305z"/>
</g>
</svg>
